<svg xmlns="http://www.w3.org/2000/svg" xmlns:xlink="http://www.w3.org/1999/xlink" width="157px" height="27px" viewBox="0 0 156.51 26.34"><defs><linearGradient id="a" x1="10.53" x2="10.53" y2="20.79" gradientUnits="userSpaceOnUse"><stop offset="0" stop-color="#f1b820"/><stop offset=".31" stop-color="#f4af19"/><stop offset=".83" stop-color="#fc9507"/><stop offset=".99" stop-color="#ff8c00"/></linearGradient><linearGradient id="b" x1="28.1" y1="5.01" x2="28.1" y2="26.34" xlink:href="#a"/><linearGradient id="c" x1="45.3" y1="5.01" x2="45.3" y2="20.79" xlink:href="#a"/><linearGradient id="d" x1="62.67" y1="5.01" x2="62.67" y2="25.29" xlink:href="#a"/><linearGradient id="e" x1="79.93" y1="5.01" x2="79.93" y2="20.79" xlink:href="#a"/><linearGradient id="f" x1="97.57" y1="4.59" x2="97.57" y2="21.21" xlink:href="#a"/><linearGradient id="g" x1="114.82" y1="5.01" x2="114.82" y2="20.79" xlink:href="#a"/><linearGradient id="h" x1="131.73" y1="4.59" x2="131.73" y2="21.21" xlink:href="#a"/><linearGradient id="i" x1="149.17" y1="4.65" x2="149.17" y2="26.34" xlink:href="#a"/></defs><g data-name="Слой 2"><g data-name="Слой 1"><path d="M16.05 20.79c-.23-.72-.48-1.46-.75-2.23s-.53-1.52-.79-2.27H6.39c-.27.76-.53 1.52-.79 2.28s-.51 1.5-.74 2.22H0q1.17-3.36 2.23-6.21t2.06-5.37c.67-1.68 1.33-3.27 2-4.79s1.33-3 2-4.42h4.43c.68 1.44 1.36 2.92 2 4.42s1.33 3.11 2 4.79 1.36 3.47 2.06 5.37 1.45 4 2.23 6.21zM10.43 4.71c-.11.3-.26.71-.46 1.23l-.69 1.8C9 8.42 8.74 9.17 8.42 10s-.64 1.68-1 2.58h6q-.48-1.35-.93-2.58c-.3-.83-.58-1.58-.85-2.26s-.5-1.28-.7-1.8z" fill="url(#a)"/><path d="M36.09 5q-1.35 4.56-2.83 8.55T30 21.3a18.3 18.3 0 0 1-1.26 2.3 7.06 7.06 0 0 1-1.38 1.56 5.24 5.24 0 0 1-1.7.9 7.64 7.64 0 0 1-2.2.28 8.92 8.92 0 0 1-3.4-.63l.78-3.57a7.62 7.62 0 0 0 1.23.33 6.93 6.93 0 0 0 1.14.09 2.55 2.55 0 0 0 1.85-.64 5.3 5.3 0 0 0 1.09-1.79q-1.53-3-3.06-6.73A84.07 84.07 0 0 1 20.25 5H25c.2.78.44 1.63.71 2.53s.56 1.84.86 2.77.6 1.83.92 2.71.6 1.68.89 2.4q.39-1.08.81-2.4a125.85 125.85 0 0 0 1.61-5.48c.25-.92.48-1.75.68-2.53z" fill="url(#b)"/><path d="M42.18 10.51l1.38-1.37c.49-.5 1-1 1.43-1.48l1.32-1.43c.41-.46.79-.87 1.12-1.22h5.43l-1.48 1.57-1.88 1.93c-.66.67-1.32 1.33-2 2s-1.3 1.25-1.9 1.75A21.44 21.44 0 0 1 47.53 14c.67.69 1.34 1.42 2 2.2s1.27 1.57 1.86 2.37 1.09 1.55 1.51 2.25h-5.1c-.36-.54-.77-1.11-1.23-1.7s-.94-1.17-1.43-1.75-1-1.11-1.52-1.62-1-.93-1.44-1.29v6.36h-4.47V5h4.47z" fill="url(#c)"/><path d="M68.13 17.13h2.67v8.16H67v-4.5H54.54V5H59v12.13h4.65V5h4.47z" fill="url(#d)"/><path d="M87.12 5v15.79h-4.5v-3c0-1 0-1.91.06-2.75s0-1.58.07-2.21 0-1.09 0-1.39Q82 12.69 81.09 14c-.58.84-1.14 1.67-1.67 2.47s-1 1.59-1.5 2.33-.88 1.42-1.24 2h-3.93V5h4.47v5.34c0 .74 0 1.39-.06 1.94s0 1 0 1.27q1.8-2.64 3.31-4.74t3-3.81z" fill="url(#e)"/><path d="M105.33 12.87a10.19 10.19 0 0 1-.54 3.4 7.36 7.36 0 0 1-1.56 2.65 7 7 0 0 1-2.45 1.69 8.73 8.73 0 0 1-6.36 0A7 7 0 0 1 92 18.92a7.71 7.71 0 0 1-1.59-2.65 9.7 9.7 0 0 1-.57-3.4 9.42 9.42 0 0 1 .58-3.39A7.69 7.69 0 0 1 92 6.87a7.28 7.28 0 0 1 2.46-1.68 8.41 8.41 0 0 1 6.24 0 7.14 7.14 0 0 1 2.45 1.68 7.62 7.62 0 0 1 1.59 2.61 9.65 9.65 0 0 1 .59 3.39zm-4.56 0a5.6 5.6 0 0 0-.83-3.25 2.69 2.69 0 0 0-2.35-1.19 2.74 2.74 0 0 0-2.37 1.19 5.53 5.53 0 0 0-.84 3.25 5.71 5.71 0 0 0 .84 3.29 2.73 2.73 0 0 0 2.37 1.21 2.69 2.69 0 0 0 2.35-1.21 5.78 5.78 0 0 0 .83-3.29z" fill="url(#f)"/><path d="M121.62 20.79h-4.47v-6.24h-4.65v6.24H108V5h4.47v5.88h4.65V5h4.47z" fill="url(#g)"/><path d="M124.32 13a9.63 9.63 0 0 1 .68-3.65 7.81 7.81 0 0 1 1.7-2.63 7 7 0 0 1 2.41-1.59 7.59 7.59 0 0 1 2.81-.54 7 7 0 0 1 5.31 2.06q2 2.05 1.95 6v.85c0 .3 0 .59-.06.83h-10.21a3 3 0 0 0 1.29 2.19 5.19 5.19 0 0 0 3.06.81 13.76 13.76 0 0 0 2.41-.22 9.15 9.15 0 0 0 1.94-.56l.6 3.63a6.17 6.17 0 0 1-1 .36 12.62 12.62 0 0 1-1.34.32c-.49.08-1 .16-1.57.22a15.76 15.76 0 0 1-1.68.09 10 10 0 0 1-3.71-.63 7.1 7.1 0 0 1-2.61-1.73 6.83 6.83 0 0 1-1.53-2.59 10.28 10.28 0 0 1-.45-3.22zm10.5-1.71a4.62 4.62 0 0 0-.2-1.11 2.77 2.77 0 0 0-.51-1 2.72 2.72 0 0 0-.87-.69 2.81 2.81 0 0 0-1.3-.27 3 3 0 0 0-1.29.26 2.65 2.65 0 0 0-.9.67 3.06 3.06 0 0 0-.56 1 6.33 6.33 0 0 0-.28 1.12z" fill="url(#h)"/><path d="M156.51 12.9a11.56 11.56 0 0 1-.45 3.33 7.49 7.49 0 0 1-1.32 2.58 6 6 0 0 1-2.16 1.68 7 7 0 0 1-3 .6 8 8 0 0 1-1.74-.18 8.37 8.37 0 0 1-1.56-.51v5.94h-4.47V5.55c.4-.12.86-.23 1.38-.34s1.06-.21 1.63-.29 1.15-.14 1.74-.19 1.16-.08 1.7-.08a9.92 9.92 0 0 1 3.48.58 7.17 7.17 0 0 1 2.58 1.66A7 7 0 0 1 156 9.48a10 10 0 0 1 .51 3.42zM152 13a5.39 5.39 0 0 0-1-3.29 3.23 3.23 0 0 0-2.76-1.25h-1.11c-.34 0-.62.07-.84.11v8.07a3.85 3.85 0 0 0 1.09.45 5.31 5.31 0 0 0 1.37.18Q152 17.31 152 13z" fill="url(#i)"/></g></g></svg>
