<svg
 xmlns="http://www.w3.org/2000/svg"
 xmlns:xlink="http://www.w3.org/1999/xlink"
 width="35px" height="21px">
<path fill-rule="evenodd"
 d="M33.500,21.000 L1.499,21.000 C0.671,21.000 -0.000,20.333 -0.000,19.510 L-0.000,1.489 C-0.000,0.666 0.671,-0.000 1.499,-0.000 L33.500,-0.000 C34.329,-0.000 35.000,0.666 35.000,1.489 L35.000,19.510 C35.000,20.333 34.329,21.000 33.500,21.000 ZM32.526,2.457 L2.474,2.457 L2.474,18.542 L32.526,18.542 L32.526,2.457 ZM14.783,5.102 C15.772,5.102 16.701,5.365 17.500,5.824 C18.299,5.365 19.227,5.102 20.217,5.102 C23.219,5.102 25.652,7.519 25.652,10.500 C25.652,13.480 23.219,15.897 20.217,15.897 C19.227,15.897 18.299,15.634 17.500,15.175 C16.701,15.634 15.772,15.897 14.783,15.897 C11.781,15.897 9.348,13.480 9.348,10.500 C9.348,7.519 11.781,5.102 14.783,5.102 ZM19.002,13.901 C19.382,14.035 19.791,14.109 20.217,14.109 C22.221,14.109 23.852,12.490 23.852,10.500 C23.852,8.509 22.221,6.890 20.217,6.890 C19.791,6.890 19.382,6.964 19.002,7.098 C19.762,8.027 20.217,9.210 20.217,10.500 C20.217,11.789 19.762,12.973 19.002,13.901 Z"/>
</svg>
