<svg
 xmlns="http://www.w3.org/2000/svg"
 xmlns:xlink="http://www.w3.org/1999/xlink"
 width="73px" height="26px">
<path fill-rule="evenodd"
 d="M48.514,5.487 L48.514,17.644 C48.514,17.827 48.362,17.974 48.175,17.974 L45.627,17.974 C45.439,17.974 45.288,17.827 45.288,17.644 L45.288,5.487 C45.288,5.305 45.439,5.157 45.627,5.157 L48.175,5.157 C48.362,5.157 48.514,5.305 48.514,5.487 ZM68.372,5.157 L65.520,5.157 C65.371,5.157 65.240,5.251 65.196,5.389 L62.940,12.573 L60.460,5.381 C60.414,5.247 60.284,5.157 60.138,5.157 L58.149,5.157 C58.003,5.157 57.873,5.247 57.827,5.381 L55.347,12.573 L53.091,5.389 C53.047,5.251 52.916,5.157 52.767,5.157 L49.915,5.157 C49.806,5.157 49.704,5.208 49.640,5.293 C49.576,5.379 49.559,5.489 49.594,5.588 L53.782,17.752 C53.828,17.885 53.957,17.976 54.103,17.976 L56.366,17.976 C56.512,17.976 56.642,17.885 56.688,17.752 L59.144,10.646 L61.599,17.752 C61.645,17.885 61.775,17.976 61.921,17.976 L64.184,17.976 C64.330,17.976 64.459,17.885 64.505,17.752 L68.693,5.588 C68.728,5.489 68.711,5.379 68.647,5.293 C68.583,5.208 68.481,5.157 68.372,5.157 ZM72.660,5.157 L70.112,5.157 C69.925,5.157 69.773,5.305 69.773,5.487 L69.773,17.644 C69.773,17.827 69.925,17.974 70.112,17.974 L72.660,17.974 C72.848,17.974 72.999,17.827 72.999,17.644 L72.999,5.487 C72.999,5.305 72.848,5.157 72.660,5.157 ZM43.813,17.557 C43.961,17.717 43.840,17.976 43.616,17.976 L40.493,17.976 C40.366,17.976 40.245,17.921 40.164,17.825 L39.635,17.204 C38.557,17.886 37.273,18.283 35.895,18.283 C32.094,18.283 29.002,15.270 29.002,11.566 C29.002,7.861 32.094,4.848 35.895,4.848 C39.697,4.848 42.789,7.861 42.789,11.566 C42.789,12.901 42.386,14.145 41.694,15.192 L43.813,17.557 ZM37.624,14.848 L36.256,13.245 C36.113,13.077 36.235,12.822 36.460,12.822 L39.321,12.822 C39.458,12.426 39.535,12.004 39.535,11.566 C39.535,9.557 38.001,7.826 35.895,7.826 C33.790,7.826 32.256,9.557 32.256,11.566 C32.256,13.574 33.790,15.281 35.895,15.281 C36.533,15.281 37.118,15.122 37.624,14.848 ZM21.177,17.495 C21.255,18.002 21.091,18.212 20.926,18.212 C20.746,18.212 20.520,18.007 20.253,17.602 C19.990,17.201 19.894,16.742 20.024,16.510 C20.110,16.357 20.291,16.290 20.518,16.374 C20.958,16.536 21.131,17.193 21.177,17.495 ZM18.742,18.600 C19.269,19.035 19.430,19.552 19.151,19.917 C18.996,20.117 18.744,20.227 18.442,20.227 C18.146,20.227 17.844,20.120 17.635,19.942 C17.155,19.533 17.014,18.871 17.328,18.494 C17.450,18.347 17.649,18.266 17.887,18.266 C18.177,18.266 18.480,18.385 18.742,18.600 ZM17.859,22.798 C20.132,22.798 22.600,23.558 25.330,25.916 C25.604,26.152 25.968,25.858 25.729,25.565 C23.046,22.263 20.564,21.634 18.088,21.103 C15.061,20.453 13.503,18.792 12.418,16.970 C12.202,16.607 12.105,16.671 12.086,17.137 C12.062,17.707 12.102,18.462 12.233,19.204 L12.233,19.204 C12.111,19.209 11.988,19.208 11.865,19.208 C7.533,19.208 4.021,15.786 4.021,11.565 C4.021,7.344 7.533,3.922 11.865,3.922 C16.196,3.922 19.708,7.344 19.708,11.565 C19.708,11.865 19.693,12.162 19.658,12.453 C19.085,12.353 17.958,12.341 17.167,12.408 C16.870,12.433 16.912,12.568 17.136,12.608 C19.729,13.064 21.510,14.630 21.918,17.471 C21.927,17.537 22.015,17.556 22.049,17.500 C23.116,15.765 23.729,13.735 23.729,11.565 C23.729,5.179 18.417,0.003 11.865,0.003 C5.312,0.003 -0.000,5.179 -0.000,11.565 C-0.000,17.950 5.312,23.127 11.865,23.127 C13.603,23.127 15.327,22.798 17.859,22.798 Z"/>
</svg>
