<svg
 xmlns="http://www.w3.org/2000/svg"
 xmlns:xlink="http://www.w3.org/1999/xlink"
 width="38px" height="13px">
<path fill-rule="evenodd"
 d="M34.608,12.807 L34.360,9.726 L31.523,9.726 L30.117,12.807 L26.606,12.807 L32.727,0.204 L36.535,0.204 L38.010,12.807 L34.608,12.807 ZM33.997,4.900 C33.980,4.658 33.960,4.378 33.937,4.079 C33.799,4.413 33.666,4.737 33.536,5.021 L32.595,7.053 L34.190,7.053 L33.997,4.900 ZM26.344,3.415 C26.194,3.335 25.408,2.930 24.379,2.930 C23.322,2.930 22.875,3.389 22.875,3.813 C22.875,4.268 23.457,4.629 24.414,5.165 C26.122,6.061 26.954,7.192 26.954,8.618 C26.954,11.226 24.869,12.980 21.769,12.980 C20.277,12.980 18.925,12.640 18.157,12.063 L17.929,11.898 L19.038,9.161 L19.407,9.380 C20.156,9.830 21.104,10.087 22.017,10.087 C22.714,10.087 23.526,9.818 23.526,9.063 C23.526,8.670 23.299,8.324 22.132,7.715 C20.885,7.042 19.471,6.039 19.471,4.238 C19.471,1.752 21.545,0.015 24.512,0.015 C25.727,0.015 26.701,0.224 27.487,0.658 L27.761,0.813 L26.712,3.618 L26.344,3.415 ZM12.956,12.807 L15.345,0.204 L18.624,0.204 L16.237,12.807 L12.956,12.807 ZM3.757,12.804 L2.338,2.625 L5.778,4.791 L-0.014,0.204 L5.556,0.204 L6.113,6.188 C6.184,6.899 6.243,7.597 6.296,8.315 C6.588,7.626 6.927,6.876 7.317,6.047 L10.075,0.201 L13.735,0.201 L7.240,12.804 L3.757,12.804 Z"/>
</svg>
