<svg
 xmlns="http://www.w3.org/2000/svg"
 xmlns:xlink="http://www.w3.org/1999/xlink"
 width="98px" height="27px">
<path fill-rule="evenodd"
 d="M96.464,15.485 L95.083,13.999 L96.615,12.659 L97.996,14.145 L96.464,15.485 ZM93.124,9.557 L94.653,8.217 L96.036,9.701 L94.507,11.042 L93.124,9.557 ZM91.152,5.141 L92.684,3.801 L94.065,5.288 L92.533,6.627 L91.152,5.141 ZM88.484,1.902 L85.473,4.510 L83.689,2.615 L78.074,7.521 L81.672,11.369 L80.256,12.573 L83.801,16.425 L82.393,17.628 L87.457,23.096 L90.456,20.412 L93.051,23.290 C92.536,23.677 91.973,24.045 91.354,24.384 C89.478,25.423 87.304,26.016 84.996,26.016 C77.891,26.016 72.095,20.393 72.095,13.500 C72.095,6.604 77.891,0.982 84.996,0.982 C87.019,0.982 88.940,1.439 90.651,2.251 C90.920,2.375 91.185,2.512 91.450,2.661 L90.264,3.691 L88.484,1.902 ZM63.075,21.541 L63.075,20.372 C64.077,20.372 64.694,19.602 65.047,18.545 L62.223,11.399 L63.841,11.399 L65.725,16.660 L65.813,16.660 L67.485,11.397 L69.062,11.397 L66.400,18.541 C65.664,20.513 64.766,21.541 63.075,21.541 ZM59.198,17.643 C59.991,17.643 60.728,17.368 61.535,16.902 L61.535,17.983 C60.871,18.358 59.991,18.644 58.932,18.644 C56.461,18.644 55.446,17.159 55.446,14.901 C55.446,12.728 56.577,11.159 58.787,11.159 C60.626,11.159 61.761,12.312 61.757,14.647 L61.757,15.171 L56.958,15.171 C56.958,16.888 57.683,17.643 59.198,17.643 ZM60.362,14.212 C60.290,12.710 59.535,12.114 58.744,12.114 C57.846,12.114 57.153,12.787 56.988,14.212 L60.362,14.212 ZM52.547,13.625 C52.547,12.497 51.975,12.297 51.219,12.297 C50.632,12.297 49.879,12.554 49.424,12.811 L49.424,18.466 L47.895,18.466 L47.895,12.211 C48.558,11.826 49.956,11.155 51.649,11.155 C53.413,11.159 54.077,11.830 54.077,13.299 L54.077,18.468 L52.547,18.468 L52.547,13.625 ZM43.140,18.644 C41.125,18.644 39.783,17.342 39.783,14.901 C39.783,12.402 41.198,11.159 43.140,11.159 C45.083,11.159 46.497,12.400 46.497,14.901 C46.497,17.342 45.157,18.644 43.140,18.644 ZM43.140,12.158 C42.170,12.158 41.329,12.971 41.329,14.901 C41.329,16.860 42.095,17.641 43.140,17.641 C44.185,17.641 44.951,16.858 44.951,14.901 C44.951,12.971 44.142,12.158 43.140,12.158 ZM36.576,11.125 L36.444,11.125 L33.441,18.470 L32.500,18.470 L29.497,11.298 L29.365,11.298 L29.365,18.470 L28.041,18.470 L28.041,8.342 L29.821,8.342 L33.119,16.326 L33.193,16.326 L36.340,8.342 L38.165,8.342 L38.165,18.470 L36.576,18.470 L36.576,11.125 ZM22.958,18.642 C22.176,18.642 20.970,18.398 20.086,17.942 L20.086,7.973 L21.616,7.616 L21.616,11.687 C22.060,11.458 22.810,11.159 23.606,11.159 C25.431,11.159 26.417,12.387 26.417,14.668 C26.417,17.340 25.093,18.642 22.958,18.642 ZM23.207,12.272 C22.622,12.272 22.194,12.429 21.604,12.743 L21.604,17.415 C22.076,17.614 22.589,17.641 22.958,17.641 C24.048,17.641 24.873,16.983 24.873,14.670 C24.873,12.859 24.193,12.272 23.207,12.272 ZM16.187,17.643 C16.981,17.643 17.717,17.368 18.526,16.902 L18.526,17.983 C17.865,18.358 16.981,18.644 15.922,18.644 C13.451,18.644 12.434,17.159 12.434,14.901 C12.434,12.728 13.567,11.159 15.775,11.159 C17.615,11.159 18.749,12.312 18.747,14.647 L18.747,15.171 L13.950,15.171 C13.950,16.888 14.673,17.643 16.187,17.643 ZM17.350,14.212 C17.277,12.710 16.527,12.114 15.731,12.114 C14.834,12.114 14.140,12.787 13.979,14.212 L17.350,14.212 ZM8.028,18.470 L6.026,11.340 L5.922,11.340 L3.980,18.470 L2.388,18.470 L0.004,8.342 L1.654,8.342 L3.302,15.899 L3.406,15.899 L5.319,8.342 L6.629,8.342 L8.676,15.899 L8.780,15.899 L10.283,8.342 L12.005,8.342 L9.619,18.470 L8.028,18.470 ZM92.243,17.615 L90.167,15.385 L92.466,13.369 L94.543,15.599 L92.243,17.615 ZM92.569,10.895 L90.273,12.906 L88.196,10.673 L90.492,8.662 L92.569,10.895 ZM90.450,6.404 L88.148,8.415 L86.076,6.181 L88.378,4.170 L90.450,6.404 ZM83.514,4.951 L86.276,7.928 L83.208,10.608 L80.446,7.631 L83.514,4.951 ZM90.646,18.160 L87.578,20.839 L84.816,17.862 L87.883,15.182 L90.646,18.160 ZM85.707,10.024 L88.469,13.002 L85.399,15.684 L82.637,12.706 L85.707,10.024 ZM94.493,17.881 L96.568,20.116 L94.267,22.127 L92.192,19.893 L94.493,17.881 Z"/>
</svg>
