<svg xmlns="http://www.w3.org/2000/svg" style="display:none"><symbol id="like-icon"><path fill-rule="evenodd" fill="#0BA22B" d="M10.719 5.357c.546.594.257 1.539-.53 1.748.05.122.078.256.078.395 0 .493-.344.91-.811 1.033.306.753-.309 1.467-1.1 1.467H5.958c-1.392 0-2.243-.343-2.962-.576V4.065c.47-.229.765-.377 1.185-.785.622-.607.952-2.097.952-2.923C5.133.159 5.297 0 5.5 0h.303c.832 0 1.521.649 1.53 1.459.006.49-.124 1.689-.367 2.112h2.858c.573 0 1.104.393 1.169.947.037.322-.073.621-.274.839zM1.646 10H.367A.362.362 0 0 1 0 9.642V3.928c0-.197.164-.357.367-.357h1.279c.202 0 .366.16.366.357v5.714a.362.362 0 0 1-.366.358z"/></symbol><symbol id="list-icon"><path fill-rule="evenodd" d="M0 13v-3h13v3H0zm0-8h13v3H0V5zm0-5h13v3H0V0z"/></symbol><symbol id="ps-logo-master"><path fill-rule="evenodd" d="M33.5 21H1.499A1.494 1.494 0 0 1 0 19.51V1.489C0 .666.671 0 1.499 0H33.5c.829 0 1.5.666 1.5 1.489V19.51c0 .823-.671 1.49-1.5 1.49zm-.974-18.543H2.474v16.085h30.052V2.457zM14.783 5.102c.989 0 1.918.263 2.717.722a5.438 5.438 0 0 1 2.717-.722c3.002 0 5.435 2.417 5.435 5.398 0 2.98-2.433 5.397-5.435 5.397-.99 0-1.918-.263-2.717-.722a5.441 5.441 0 0 1-2.717.722c-3.002 0-5.435-2.417-5.435-5.397 0-2.981 2.433-5.398 5.435-5.398zm4.219 8.799c.38.134.789.208 1.215.208 2.004 0 3.635-1.619 3.635-3.609 0-1.991-1.631-3.61-3.635-3.61-.426 0-.835.074-1.215.208a5.352 5.352 0 0 1 1.215 3.402 5.349 5.349 0 0 1-1.215 3.401z"/></symbol><symbol id="ps-logo-qiwi"><path fill-rule="evenodd" d="M48.514 5.487v12.157c0 .183-.152.33-.339.33h-2.548a.334.334 0 0 1-.339-.33V5.487c0-.182.151-.33.339-.33h2.548c.187 0 .339.148.339.33zm19.858-.33H65.52a.338.338 0 0 0-.324.232l-2.256 7.184-2.48-7.192a.338.338 0 0 0-.322-.224h-1.989a.338.338 0 0 0-.322.224l-2.48 7.192-2.256-7.184a.338.338 0 0 0-.324-.232h-2.852a.344.344 0 0 0-.275.136.316.316 0 0 0-.046.295l4.188 12.164a.338.338 0 0 0 .321.224h2.263a.34.34 0 0 0 .322-.224l2.456-7.106 2.455 7.106a.34.34 0 0 0 .322.224h2.263a.338.338 0 0 0 .321-.224l4.188-12.164a.316.316 0 0 0-.046-.295.344.344 0 0 0-.275-.136zm4.288 0h-2.548a.335.335 0 0 0-.339.33v12.157c0 .183.152.33.339.33h2.548a.334.334 0 0 0 .339-.33V5.487a.334.334 0 0 0-.339-.33zm-28.847 12.4c.148.16.027.419-.197.419h-3.123a.43.43 0 0 1-.329-.151l-.529-.621a6.976 6.976 0 0 1-3.74 1.079c-3.801 0-6.893-3.013-6.893-6.717 0-3.705 3.092-6.718 6.893-6.718 3.802 0 6.894 3.013 6.894 6.718a6.552 6.552 0 0 1-1.095 3.626l2.119 2.365zm-6.189-2.709l-1.368-1.603c-.143-.168-.021-.423.204-.423h2.861c.137-.396.214-.818.214-1.256 0-2.009-1.534-3.74-3.64-3.74-2.105 0-3.639 1.731-3.639 3.74 0 2.008 1.534 3.715 3.639 3.715.638 0 1.223-.159 1.729-.433zm-16.447 2.647c.078.507-.086.717-.251.717-.18 0-.406-.205-.673-.61-.263-.401-.359-.86-.229-1.092.086-.153.267-.22.494-.136.44.162.613.819.659 1.121zM18.742 18.6c.527.435.688.952.409 1.317-.155.2-.407.31-.709.31-.296 0-.598-.107-.807-.285-.48-.409-.621-1.071-.307-1.448.122-.147.321-.228.559-.228.29 0 .593.119.855.334zm-.883 4.198c2.273 0 4.741.76 7.471 3.118.274.236.638-.058.399-.351-2.683-3.302-5.165-3.931-7.641-4.462-3.027-.65-4.585-2.311-5.67-4.133-.216-.363-.313-.299-.332.167-.024.57.016 1.325.147 2.067-.122.005-.245.004-.368.004-4.332 0-7.844-3.422-7.844-7.643s3.512-7.643 7.844-7.643c4.331 0 7.843 3.422 7.843 7.643 0 .3-.015.597-.05.888-.573-.1-1.7-.112-2.491-.045-.297.025-.255.16-.031.2 2.593.456 4.374 2.022 4.782 4.863.009.066.097.085.131.029a11.287 11.287 0 0 0 1.68-5.935c0-6.386-5.312-11.562-11.864-11.562C5.312.003 0 5.179 0 11.565c0 6.385 5.312 11.562 11.865 11.562 1.738 0 3.462-.329 5.994-.329z"/></symbol><symbol id="ps-logo-visa"><path fill-rule="evenodd" d="M34.608 12.807l-.248-3.081h-2.837l-1.406 3.081h-3.511L32.727.204h3.808l1.475 12.603h-3.402zM33.997 4.9c-.017-.242-.037-.522-.06-.821-.138.334-.271.658-.401.942l-.941 2.032h1.595L33.997 4.9zm-7.653-1.485a4.349 4.349 0 0 0-1.965-.485c-1.057 0-1.504.459-1.504.883 0 .455.582.816 1.539 1.352 1.708.896 2.54 2.027 2.54 3.453 0 2.608-2.085 4.362-5.185 4.362-1.492 0-2.844-.34-3.612-.917l-.228-.165 1.109-2.737.369.219c.749.45 1.697.707 2.61.707.697 0 1.509-.269 1.509-1.024 0-.393-.227-.739-1.394-1.348-1.247-.673-2.661-1.676-2.661-3.477 0-2.486 2.074-4.223 5.041-4.223 1.215 0 2.189.209 2.975.643l.274.155-1.049 2.805-.368-.203zm-13.388 9.392L15.345.204h3.279l-2.387 12.603h-3.281zm-9.199-.003L2.338 2.625l3.44 2.166L-.014.204h5.57l.557 5.984c.071.711.13 1.409.183 2.127.292-.689.631-1.439 1.021-2.268L10.075.201h3.66L7.24 12.804H3.757z"/></symbol><symbol id="ps-logo-webmoney"><path fill-rule="evenodd" d="M96.464 15.485l-1.381-1.486 1.532-1.34 1.381 1.486-1.532 1.34zm-3.34-5.928l1.529-1.34 1.383 1.484-1.529 1.341-1.383-1.485zm-1.972-4.416l1.532-1.34 1.381 1.487-1.532 1.339-1.381-1.486zm-2.668-3.239L85.473 4.51l-1.784-1.895-5.615 4.906 3.598 3.848-1.416 1.204 3.545 3.852-1.408 1.203 5.064 5.468 2.999-2.684 2.595 2.878c-.515.387-1.078.755-1.697 1.094a13.1 13.1 0 0 1-6.358 1.632c-7.105 0-12.901-5.623-12.901-12.516 0-6.896 5.796-12.518 12.901-12.518 2.023 0 3.944.457 5.655 1.269.269.124.534.261.799.41l-1.186 1.03-1.78-1.789zM63.075 21.541v-1.169c1.002 0 1.619-.77 1.972-1.827l-2.824-7.146h1.618l1.884 5.261h.088l1.672-5.263h1.577L66.4 18.541c-.736 1.972-1.634 3-3.325 3zm-3.877-3.898c.793 0 1.53-.275 2.337-.741v1.081a5.272 5.272 0 0 1-2.603.661c-2.471 0-3.486-1.485-3.486-3.743 0-2.173 1.131-3.742 3.341-3.742 1.839 0 2.974 1.153 2.97 3.488v.524h-4.799c0 1.717.725 2.472 2.24 2.472zm1.164-3.431c-.072-1.502-.827-2.098-1.618-2.098-.898 0-1.591.673-1.756 2.098h3.374zm-7.815-.587c0-1.128-.572-1.328-1.328-1.328-.587 0-1.34.257-1.795.514v5.655h-1.529v-6.255c.663-.385 2.061-1.056 3.754-1.056 1.764.004 2.428.675 2.428 2.144v5.169h-1.53v-4.843zm-9.407 5.019c-2.015 0-3.357-1.302-3.357-3.743 0-2.499 1.415-3.742 3.357-3.742 1.943 0 3.357 1.241 3.357 3.742 0 2.441-1.34 3.743-3.357 3.743zm0-6.486c-.97 0-1.811.813-1.811 2.743 0 1.959.766 2.74 1.811 2.74s1.811-.783 1.811-2.74c0-1.93-.809-2.743-1.811-2.743zm-6.564-1.033h-.132l-3.003 7.345H32.5l-3.003-7.172h-.132v7.172h-1.324V8.342h1.78l3.298 7.984h.074l3.147-7.984h1.825V18.47h-1.589v-7.345zm-13.618 7.517c-.782 0-1.988-.244-2.872-.7V7.973l1.53-.357v4.071c.444-.229 1.194-.528 1.99-.528 1.825 0 2.811 1.228 2.811 3.509 0 2.672-1.324 3.974-3.459 3.974zm.249-6.37c-.585 0-1.013.157-1.603.471v4.672c.472.199.985.226 1.354.226 1.09 0 1.915-.658 1.915-2.971 0-1.811-.68-2.398-1.666-2.398zm-7.02 5.371c.794 0 1.53-.275 2.339-.741v1.081a5.267 5.267 0 0 1-2.604.661c-2.471 0-3.488-1.485-3.488-3.743 0-2.173 1.133-3.742 3.341-3.742 1.84 0 2.974 1.153 2.972 3.488v.524H13.95c0 1.717.723 2.472 2.237 2.472zm1.163-3.431c-.073-1.502-.823-2.098-1.619-2.098-.897 0-1.591.673-1.752 2.098h3.371zM8.028 18.47l-2.002-7.13h-.104L3.98 18.47H2.388L.004 8.342h1.65l1.648 7.557h.104l1.913-7.557h1.31l2.047 7.557h.104l1.503-7.557h1.722L9.619 18.47H8.028zm84.215-.855l-2.076-2.23 2.299-2.016 2.077 2.23-2.3 2.016zm.326-6.72l-2.296 2.011-2.077-2.233 2.296-2.011 2.077 2.233zM90.45 6.404l-2.302 2.011-2.072-2.234 2.302-2.011 2.072 2.234zm-6.936-1.453l2.762 2.977-3.068 2.68-2.762-2.977 3.068-2.68zm7.132 13.209l-3.068 2.679-2.762-2.977 3.067-2.68 2.763 2.978zm-4.939-8.136l2.762 2.978-3.07 2.682-2.762-2.978 3.07-2.682zm8.786 7.857l2.075 2.235-2.301 2.011-2.075-2.234 2.301-2.012z"/></symbol><symbol id="table-icon"><path fill-rule="evenodd" d="M8 13V8h5v5H8zM8 0h5v5H8V0zM0 8h5v5H0V8zm0-8h5v5H0V0z"/></symbol><symbol id="temp-icon-left-arrow" viewBox="0 0 31.494 31.494"><path d="M10.273 5.01a1.117 1.117 0 0 1 1.587 1.57l-8.047 8.047h26.554c.62 0 1.127.492 1.127 1.11 0 .62-.508 1.128-1.127 1.128H3.813l8.047 8.032c.43.444.43 1.16 0 1.587a1.112 1.112 0 0 1-1.587 0L.32 16.532a1.12 1.12 0 0 1 0-1.57l9.953-9.953z" fill="#1E201D"/></symbol><symbol id="temp-icon-right-arrow" viewBox="0 0 31.49 31.49"><path d="M21.205 5.007a1.117 1.117 0 0 0-1.587 1.57l8.047 8.048H1.11c-.618 0-1.11.493-1.11 1.112 0 .62.492 1.127 1.11 1.127h26.555l-8.047 8.032c-.43.444-.43 1.16 0 1.587.444.444 1.16.444 1.587 0l9.952-9.952a1.092 1.092 0 0 0 0-1.57l-9.952-9.95z" fill="#1E201D"/></symbol></svg>